<?xml version="1.0" encoding="utf-8"?>
<!-- Generator: Adobe Illustrator 16.0.4, SVG Export Plug-In . SVG Version: 6.00 Build 0)  -->
<!DOCTYPE svg PUBLIC "-//W3C//DTD SVG 1.1//EN" "http://www.w3.org/Graphics/SVG/1.1/DTD/svg11.dtd">
<svg version="1.1" id="Calque_1" xmlns="http://www.w3.org/2000/svg" xmlns:xlink="http://www.w3.org/1999/xlink" x="0px" y="0px"
	 width="1023.857px" height="1279.908px" viewBox="0 0 1023.857 1279.908" enable-background="new 0 0 1023.857 1279.908"
	 xml:space="preserve">
<g id="Calque_7">
	<g id="Calque_2">
		<path opacity="0.5" fill="#FF66FF" stroke="#000000" stroke-miterlimit="10" d="M504.561,637.109
			c69.152,31.028,69.73,39.867,76.479,45.761s8.46,13.858,14.555,19.872c6.095,6.013,89.501,15.488,94.779,4.631
			c20.173-11.094,9.023-10.809,24.396-18.955c115.318-1.734,192.741-74.535,222.415-167.332
			c14.71-55.188,21.121-191.818-93.372-273.631c-31.907-26.116-65.345-54.728-68.568-70.929s12.739-39.32,17.427-53.415
			c4.688-14.093,11.961-44.369,10.318-61.472c-1.643-17.104-3.279-36.512-9.389-34.208c-6.096,2.314-1.403,18.022-7.503,31.893
			s-21.584,6.474-25.339-4.618c-2.815-3.23-1.872-22.866,2.352-27.373c4.223-4.521-7.039-0.361-7.982,3.799
			c-0.942,4.161-5.864-13.856-7.038-8.778c-1.174,5.08-3.758-7.862-8.446,13.396c-4.688,21.271-9.375-36.74-14.542-29.579
			c-1.892,7.307,0.93,10.165-0.478,12.939c-1.408,2.773-11.249-10.485-8.911-2.774c13.606,18.725,16.98,46.343,14.517,55.877
			c-1.759,17.593-3.521,21.991-10.294,42.12c-6.772,20.13-8.445,42.061-35.192,62.4c-28.623,18.027-112.881,24.19-219.599,120.642
			C363.149,397.967,391.984,581.278,504.561,637.109z"/>
		<path opacity="0.5" fill="#66CCFF" stroke="#000000" stroke-miterlimit="10" d="M504.561,643.761
			c69.152-31.028,69.73-39.867,76.479-45.761s8.46-13.859,14.555-19.872s89.501-15.489,94.779-4.631
			c20.173,11.093,9.023,10.809,24.396,18.955c115.318,1.734,192.741,74.535,222.415,167.332
			c14.71,55.188,21.121,191.818-93.372,273.632c-31.907,26.115-65.345,54.728-68.568,70.929s12.739,39.32,17.427,53.415
			c4.688,14.093,11.961,44.369,10.318,61.471c-1.643,17.104-3.279,36.513-9.389,34.209c-6.096-2.314-1.403-18.022-7.503-31.893
			c-6.1-13.871-21.584-6.475-25.339,4.618c-2.815,3.229-1.872,22.865,2.352,27.372c4.223,4.521-7.039,0.361-7.982-3.799
			c-0.942-4.161-5.864,13.855-7.038,8.777c-1.174-5.079-3.758,7.862-8.446-13.396c-4.688-21.271-9.375,36.74-14.542,29.578
			c-1.892-7.307,0.93-10.164-0.478-12.938c-1.408-2.773-11.249,10.484-8.911,2.774c13.606-18.725,16.98-46.343,14.517-55.877
			c-1.759-17.593-3.521-21.991-10.294-42.12c-6.772-20.13-8.445-42.061-35.192-62.4c-28.623-18.027-112.881-24.19-219.599-120.642
			C363.149,882.903,391.984,699.592,504.561,643.761z"/>
		<path id="XMLID_1_" opacity="0.5" fill="#99FF66" stroke="#000000" stroke-miterlimit="10" d="M516.139,643.761
			c-69.152-31.028-69.73-39.867-76.48-45.761s-8.46-13.859-14.555-19.872s-89.501-15.489-94.779-4.631
			c-20.172,11.093-9.024,10.809-24.396,18.955c-115.318,1.734-192.741,74.535-222.415,167.332
			c-14.709,55.188-21.121,191.818,93.372,273.632c31.908,26.115,65.345,54.728,68.568,70.929s-12.74,39.32-17.427,53.415
			c-4.688,14.093-11.961,44.369-10.318,61.471c1.643,17.104,3.28,36.513,9.389,34.209c6.095-2.314,1.403-18.022,7.502-31.893
			c6.1-13.871,21.584-6.475,25.339,4.618c2.815,3.229,1.872,22.865-2.351,27.372c-4.223,4.521,7.039,0.361,7.982-3.799
			c0.942-4.161,5.864,13.855,7.039,8.777c1.174-5.079,3.758,7.862,8.446-13.396c4.688-21.271,9.375,36.74,14.542,29.578
			c1.891-7.307-0.93-10.164,0.478-12.938c1.408-2.773,11.249,10.484,8.91,2.774c-13.606-18.725-16.979-46.343-14.516-55.877
			c1.759-17.593,3.521-21.991,10.293-42.12c6.772-20.13,8.446-42.061,35.192-62.4c28.623-18.027,116.447-20.987,219.6-120.642
			C655.623,896.978,637.211,707.423,516.139,643.761z"/>
		<path opacity="0.5" fill="#FF9966" fill-opacity="0.5" stroke="#000000" stroke-miterlimit="10" d="M516.139,637.109
			c-69.152,31.028-69.73,39.867-76.48,45.761s-8.46,13.858-14.555,19.872c-6.095,6.013-89.501,15.488-94.779,4.631
			c-20.172-11.094-9.024-10.809-24.396-18.955c-115.318-1.734-192.741-74.535-222.415-167.332
			c-14.709-55.188-21.121-191.818,93.372-273.631c31.908-26.116,65.345-54.728,68.568-70.929s-12.74-39.32-17.427-53.415
			c-4.688-14.093-11.961-44.369-10.318-61.472c1.643-17.104,3.28-36.512,9.389-34.208c6.095,2.314,1.403,18.022,7.502,31.893
			c6.1,13.871,21.584,6.474,25.339-4.618c2.815-3.23,1.872-22.866-2.351-27.373c-4.223-4.521,7.039-0.361,7.982,3.799
			c0.942,4.161,5.864-13.856,7.039-8.778c1.174,5.08,3.758-7.862,8.446,13.396c4.688,21.271,9.375-36.74,14.542-29.579
			c1.891,7.307-0.93,10.165,0.478,12.939c1.408,2.773,11.249-10.485,8.91-2.774c-13.606,18.725-16.979,46.343-14.516,55.877
			c1.759,17.593,3.521,21.991,10.293,42.12c6.772,20.13,8.446,42.061,35.192,62.4c28.623,18.027,116.447,20.987,219.6,120.642
			C655.623,383.892,637.211,573.447,516.139,637.109z"/>
	</g>
	<g id="Contour">
		<path fill="none" stroke="#000000" stroke-miterlimit="10" d="M504.561,637.109c69.152,31.028,69.73,39.867,76.479,45.761
			s8.46,13.858,14.555,19.872c6.095,6.013,89.501,15.488,94.779,4.631c20.173-11.094,9.023-10.809,24.396-18.955
			c115.318-1.734,192.741-74.535,222.415-167.332c14.71-55.188,21.121-191.818-93.372-273.631
			c-31.907-26.116-65.345-54.728-68.568-70.929s12.739-39.32,17.427-53.415c4.688-14.093,11.961-44.369,10.318-61.472
			c-1.643-17.104-3.279-36.512-9.389-34.208c-6.096,2.314-1.403,18.022-7.503,31.893s-21.584,6.474-25.339-4.618
			c-2.815-3.23-1.872-22.866,2.352-27.373c4.223-4.521-7.039-0.361-7.982,3.799c-0.942,4.161-5.864-13.856-7.038-8.778
			c-1.174,5.08-3.758-7.862-8.446,13.396c-4.688,21.271-9.375-36.74-14.542-29.579c-1.892,7.307,0.93,10.165-0.478,12.939
			c-1.408,2.773-11.249-10.485-8.911-2.774c13.606,18.725,16.98,46.343,14.517,55.877c-1.759,17.593-3.521,21.991-10.294,42.12
			c-6.772,20.13-8.445,42.061-35.192,62.4c-28.623,18.027-112.881,24.19-219.599,120.642
			C363.149,397.967,391.984,581.278,504.561,637.109z"/>
		<path fill="none" stroke="#000000" stroke-miterlimit="10" d="M516.139,637.109c-69.152,31.028-69.73,39.867-76.48,45.761
			s-8.46,13.858-14.555,19.872c-6.095,6.013-89.501,15.488-94.779,4.631c-20.172-11.094-9.024-10.809-24.396-18.955
			c-115.318-1.734-192.741-74.535-222.415-167.332c-14.709-55.188-21.121-191.818,93.372-273.631
			c31.908-26.116,65.345-54.728,68.568-70.929s-12.74-39.32-17.427-53.415c-4.688-14.093-11.961-44.369-10.318-61.472
			c1.643-17.104,3.28-36.512,9.389-34.208c6.095,2.314,1.403,18.022,7.502,31.893c6.1,13.871,21.584,6.474,25.339-4.618
			c2.815-3.23,1.872-22.866-2.351-27.373c-4.223-4.521,7.039-0.361,7.982,3.799c0.942,4.161,5.864-13.856,7.039-8.778
			c1.174,5.08,3.758-7.862,8.446,13.396c4.688,21.271,9.375-36.74,14.542-29.579c1.891,7.307-0.93,10.165,0.478,12.939
			c1.408,2.773,11.249-10.485,8.91-2.774c-13.606,18.725-16.979,46.343-14.516,55.877c1.759,17.593,3.521,21.991,10.293,42.12
			c6.772,20.13,8.446,42.061,35.192,62.4c28.623,18.027,116.447,20.987,219.6,120.642
			C655.623,383.892,637.211,573.447,516.139,637.109z"/>
		<path id="XMLID_3_" fill="none" stroke="#000000" stroke-miterlimit="10" d="M516.139,643.761
			c-69.152-31.028-69.73-39.867-76.48-45.761s-8.46-13.859-14.555-19.872s-89.501-15.489-94.779-4.631
			c-20.172,11.093-9.024,10.809-24.396,18.955c-115.318,1.734-192.741,74.535-222.415,167.332
			c-14.709,55.188-21.121,191.818,93.372,273.632c31.908,26.115,65.345,54.728,68.568,70.929s-12.74,39.32-17.427,53.415
			c-4.688,14.093-11.961,44.369-10.318,61.471c1.643,17.104,3.28,36.513,9.389,34.209c6.095-2.314,1.403-18.022,7.502-31.893
			c6.1-13.871,21.584-6.475,25.339,4.618c2.815,3.229,1.872,22.865-2.351,27.372c-4.223,4.521,7.039,0.361,7.982-3.799
			c0.942-4.161,5.864,13.855,7.039,8.777c1.174-5.079,3.758,7.862,8.446-13.396c4.688-21.271,9.375,36.74,14.542,29.578
			c1.891-7.307-0.93-10.164,0.478-12.938c1.408-2.773,11.249,10.484,8.91,2.774c-13.606-18.725-16.979-46.343-14.516-55.877
			c1.759-17.593,3.521-21.991,10.293-42.12c6.772-20.13,8.446-42.061,35.192-62.4c28.623-18.027,116.447-20.987,219.6-120.642
			C655.623,896.978,637.211,707.423,516.139,643.761z"/>
		<path fill="none" stroke="#000000" stroke-miterlimit="10" d="M504.561,643.761c69.152-31.028,69.73-39.867,76.479-45.761
			s8.46-13.859,14.555-19.872s89.501-15.489,94.779-4.631c20.173,11.093,9.023,10.809,24.396,18.955
			c115.318,1.734,192.741,74.535,222.415,167.332c14.71,55.188,21.121,191.818-93.372,273.632
			c-31.907,26.115-65.345,54.728-68.568,70.929s12.739,39.32,17.427,53.415c4.688,14.093,11.961,44.369,10.318,61.471
			c-1.643,17.104-3.279,36.513-9.389,34.209c-6.096-2.314-1.403-18.022-7.503-31.893c-6.1-13.871-21.584-6.475-25.339,4.618
			c-2.815,3.229-1.872,22.865,2.352,27.372c4.223,4.521-7.039,0.361-7.982-3.799c-0.942-4.161-5.864,13.855-7.038,8.777
			c-1.174-5.079-3.758,7.862-8.446-13.396c-4.688-21.271-9.375,36.74-14.542,29.578c-1.892-7.307,0.93-10.164-0.478-12.938
			c-1.408-2.773-11.249,10.484-8.911,2.774c13.606-18.725,16.98-46.343,14.517-55.877c-1.759-17.593-3.521-21.991-10.294-42.12
			c-6.772-20.13-8.445-42.061-35.192-62.4c-28.623-18.027-112.881-24.19-219.599-120.642
			C363.149,882.903,391.984,699.592,504.561,643.761z"/>
	</g>
</g>
<g id="Calque_5" opacity="0.7">
	<g>
		<rect x="724" y="410" fill="#D6D6D6" width="138" height="78"/>
		<path d="M861,411v76H725v-76H861 M863,409h-2.095H724.966H723v1.55v76.895V489h1.966h135.939H863v-1.556V410.55V409L863,409z"/>
	</g>
	<g>
		<rect x="642" y="280" fill="#D6D6D6" width="138" height="79"/>
		<path d="M779,281v77H643v-77H779 M781,279h-2.482H642.579H641v2.477v76.895V360h1.579h135.938H781v-1.628v-76.895V279L781,279z"/>
	</g>
	<g>
		<rect x="158" y="338" fill="#D6D6D6" width="138" height="79"/>
		<path d="M295,339v77H159v-77H295 M297,337h-1.82H159.241H157v2.148v76.895V418h2.241H295.18H297v-1.957v-76.895V337L297,337z"/>
	</g>
	<g>
		<rect x="656" y="948" fill="#D6D6D6" width="138" height="79"/>
		<path d="M793,949v77H657v-77H793 M795,947h-1.617H657.443H655v1.918v76.896V1028h2.443h135.939H795v-2.187v-76.896V947L795,947z"
			/>
	</g>
	<g>
		<rect x="734" y="768" fill="#D6D6D6" width="138" height="78"/>
		<path d="M871,769v76H735v-76H871 M873,767h-2.095H734.966H733v1.576v76.895V847h1.966h135.939H873v-1.529v-76.895V767L873,767z"/>
	</g>
	<g>
		<rect x="587" y="599" fill="#D6D6D6" width="138" height="79"/>
		<path d="M724,600v77H588v-77H724 M726,598h-2.407H587.654H586v2.041v76.895V679h1.654h135.938H726v-2.064v-76.895V598L726,598z"/>
	</g>
	<g>
		<rect x="125" y="779" fill="#D6D6D6" width="138" height="79"/>
		<path d="M262,780v77H126v-77H262 M264,778h-1.775H126.286H124v1.919v76.896V859h2.286h135.939H264v-2.186v-76.896V778L264,778z"/>
	</g>
	<g>
		<rect x="210" y="933" fill="#D6D6D6" width="138" height="79"/>
		<path d="M347,934v77H211v-77H347 M349,932h-1.642H211.419H209v1.709v76.895V1013h2.419h135.939H349v-2.396v-76.895V932L349,932z"
			/>
	</g>
	<g>
		<rect x="294" y="599" fill="#D6D6D6" width="138" height="79"/>
		<path d="M431,600v77H295v-77H431 M433,598h-1.882H295.18H293v2.041v76.895V679h2.18h135.938H433v-2.064v-76.895V598L433,598z"/>
	</g>
	<g>
		<rect x="442" y="729" fill="#D6D6D6" width="138" height="79"/>
		<path d="M579,730v77H443v-77H579 M581,728h-1.584H443.477H441v2.158v76.895V809h2.477h135.939H581v-1.947v-76.895V728L581,728z"/>
	</g>
	<g>
		<rect x="444" y="860" fill="#D6D6D6" width="138" height="79"/>
		<path d="M581,861v77H445v-77H581 M583,859h-1.584H445.477H443v1.918v76.896V940h2.477h135.939H583v-2.187v-76.896V859L583,859z"/>
	</g>
	<g>
		<rect x="437" y="415" fill="#D6D6D6" width="143" height="79"/>
		<path d="M579,416v77H438v-77H579 M581,414h-1.584H437.984H436v2.043v76.895V495h1.984h141.432H581v-2.062v-76.895V414L581,414z"/>
	</g>
	<rect x="161.3" y="348.76" fill="none" width="127.7" height="61.79"/>
</g>
<g id="Calque_6">
	<rect x="295.179" y="602.443" fill="none" width="135.939" height="72.089"/>
	<text transform="matrix(1 0 0 1 323.5747 619.2266)"><tspan x="0" y="0" font-family="'Helvetica'" font-size="23.343">Pouvoir </tspan><tspan x="-4.548" y="24.717" font-family="'Helvetica'" font-size="23.343">juridique </tspan><tspan x="-25.948" y="49.433" font-family="'Helvetica'" font-size="23.343">impuissant ?</tspan></text>
	<rect x="723.593" y="428.058" fill="none" width="135.938" height="47.716"/>
	<text transform="matrix(1 0 0 1 724.25 445.8281)"><tspan x="0" y="0" font-family="'Helvetica'" font-size="24.7162">TOR en tant </tspan><tspan x="4.109" y="24.717" font-family="'Helvetica'" font-size="24.7162">qu’exemple</tspan></text>
	<rect x="640.519" y="296.066" fill="none" width="135.939" height="47.716"/>
	<text transform="matrix(1 0 0 1 672.8008 312.8496)"><tspan x="0" y="0" font-family="'Helvetica'" font-size="23.343">Liberté </tspan><tspan x="-29.84" y="24.716" font-family="'Helvetica'" font-size="23.343">d’expression</tspan></text>
	<rect x="437.983" y="430.632" fill="none" width="141.432" height="47.716"/>
	<text transform="matrix(1 0 0 1 488.5479 446.4277)"><tspan x="0" y="0" font-family="'Helvetica'" font-size="21.9699">Lois </tspan><tspan x="-48.842" y="24.717" font-family="'Helvetica'" font-size="21.9699">controversées</tspan></text>
	<rect x="124.226" y="791.934" fill="none" width="135.938" height="52.865"/>
	<text transform="matrix(1 0 0 1 136.5537 809.7041)"><tspan x="0" y="0" font-family="'Helvetica'" font-size="24.7162">Protection </tspan><tspan x="2.751" y="29.659" font-family="'Helvetica'" font-size="24.7162">vie privée</tspan></text>
	<rect x="445.254" y="757.277" fill="none" width="135.939" height="22.656"/>
	<text transform="matrix(1 0 0 1 451.4277 775.0479)" font-family="'Helvetica'" font-size="24.7162">Terrosisme</text>
	<rect x="587.653" y="627.159" fill="none" width="135.939" height="22.657"/>
	<text transform="matrix(1 0 0 1 595.1841 644.9307)" font-family="'Helvetica'" font-size="24.7162">Impartialité</text>
	<rect x="445.477" y="888.037" fill="none" width="135.939" height="22.657"/>
	<text transform="matrix(1 0 0 1 450.2744 905.8076)" font-family="'Helvetica'" font-size="24.7162">Cybercrime</text>
	<rect x="211.419" y="945.724" fill="none" width="135.938" height="52.865"/>
	<text transform="matrix(1 0 0 1 234.0532 963.4941)"><tspan x="0" y="0" font-family="'Helvetica'" font-size="24.7162">Sécurité </tspan><tspan x="-7.555" y="29.66" font-family="'Helvetica'" font-size="24.7162">utilisateur</tspan></text>
	<rect x="657.443" y="964.418" fill="none" width="135.938" height="45.895"/>
	<text transform="matrix(1 0 0 1 678.043 981.2012)"><tspan x="0" y="0" font-family="'Helvetica'" font-size="23.343">Influence </tspan><tspan x="-12.315" y="24.717" font-family="'Helvetica'" font-size="23.343">des médias</tspan></text>
	<rect x="733.593" y="780.591" fill="none" width="135.938" height="52.865"/>
	<text transform="matrix(1 0 0 1 757.4512 797.375)"><tspan x="0" y="0" font-family="'Helvetica'" font-size="23.343">Avis des </tspan><tspan x="-13.626" y="28.012" font-family="'Helvetica'" font-size="23.343">chercheurs</tspan></text>
	<text transform="matrix(1 0 0 1 181.1816 370.043)"><tspan x="0" y="0" font-family="'Helvetica'" font-size="24.7162">Bloquer</tspan><tspan x="6.203" y="29.66" font-family="'Helvetica'" font-size="24.7162">TOR ?</tspan></text>
</g>
<text transform="matrix(1 0 0 1 404.8652 143.7793)" fill="#FF9966" font-family="'RobotoSlab-Regular'" font-size="39.8205">JURIDIQUE</text>
<text transform="matrix(1 0 0 1 407.7812 80.3145)" fill="#FF66FF" font-family="'RobotoSlab-Regular'" font-size="39.8205">POLITIQUE</text>
<text transform="matrix(1 0 0 1 442.8271 1188.375)"><tspan x="0" y="0" fill="#66CCFF" font-family="'RobotoSlab-Regular'" font-size="39.8205">SOCIO-</tspan><tspan x="-59.439" y="43.939" fill="#66CCFF" font-family="'RobotoSlab-Regular'" font-size="39.8205">MEDIATIQUE</tspan></text>
<text transform="matrix(1 0 0 1 393.4204 1125.2539)" fill="#99FF66" font-family="'RobotoSlab-Regular'" font-size="39.8205">TECHNIQUE</text>
<path fill="none" stroke="#FF66FF" stroke-width="2" stroke-miterlimit="10" d="M410,89h211.295c0,0,68.677,68.594,76.002,75.92"/>
<polyline fill="none" stroke="#FF9966" stroke-width="2" stroke-miterlimit="10" points="620,153 402.969,153 365.799,190.21 "/>
<path fill="none" stroke="#66CCFF" stroke-width="2" stroke-miterlimit="10" d="M385,1242h258.266
	c58.453-58,30.83-31.233,75.517-75.92"/>
<polyline fill="none" stroke="#99FF66" stroke-width="2" stroke-miterlimit="10" points="625,1132 400.223,1132 362.978,1094.79 "/>
</svg>
